<svg xmlns="http://www.w3.org/2000/svg" width="155" height="155" viewBox="0 0 155 155" version="1.1">
	<path fill-opacity="0.106" d="M 80.926 2.832 C 75.528 6.256, 71.567 10.790, 69.865 15.496 C 69.170 17.418, 67.791 19.249, 66.801 19.563 C 65.810 19.878, 65 20.554, 65 21.067 C 65 21.580, 64.361 22, 63.580 22 C 61.399 22, 60.804 31.328, 61.173 59.702 C 61.409 77.887, 61.841 85.244, 62.726 86.128 C 63.400 86.801, 65.693 87.514, 67.821 87.712 C 70.723 87.983, 72.858 89.159, 76.350 92.411 C 80.503 96.278, 80.834 96.893, 79.403 98.080 C 78.520 98.813, 77.213 99.498, 76.498 99.603 C 74.368 99.916, 69 104.272, 69 105.688 C 69 106.484, 67.800 107, 65.950 107 C 59.928 107, 52.308 113.245, 53.551 117.162 C 53.921 118.326, 53.557 119.233, 52.569 119.612 C 51.706 119.943, 51 121.011, 51 121.985 C 51 122.958, 50.272 124.360, 49.381 125.099 C 47.241 126.875, 48.042 137.827, 50.441 139.581 C 51.318 140.222, 51.785 141.398, 51.479 142.195 C 51.144 143.068, 51.833 144.107, 53.211 144.808 C 54.470 145.448, 56.681 146.924, 58.125 148.088 C 60.315 149.853, 61.112 150.010, 62.933 149.036 C 65.030 147.914, 65.089 148.007, 64.446 151.434 C 63.780 154.987, 63.790 155, 67.389 155 C 70.967 155, 71 154.961, 71 150.779 C 71 145.533, 73.151 136, 74.334 136 C 74.818 136, 74.920 136.767, 74.560 137.705 C 73.114 141.474, 72.829 147.951, 73.959 151.375 C 74.940 154.350, 75.635 154.996, 77.828 154.978 C 81.216 154.950, 85.088 152.016, 85.108 149.461 C 85.117 148.382, 84.759 142.562, 84.312 136.527 C 83.528 125.937, 83.579 125.468, 85.774 123.104 C 89.210 119.405, 89.691 116.172, 87.078 114.342 C 85.338 113.124, 85.142 112.534, 86.095 111.386 C 86.749 110.597, 87.008 109.675, 86.669 109.336 C 85.621 108.288, 92.069 100.924, 93.338 101.720 C 93.977 102.122, 95.337 102.312, 96.359 102.144 C 97.580 101.943, 97.968 102.243, 97.488 103.019 C 97.051 103.727, 95.601 103.970, 93.879 103.626 C 91.726 103.195, 91 103.430, 91 104.556 C 91 107.442, 94.255 107.304, 100.658 104.146 C 104.464 102.269, 107.394 100.109, 107.867 98.832 C 108.579 96.906, 108.734 96.864, 109.335 98.430 C 109.704 99.393, 109.710 100.659, 109.349 101.245 C 108.983 101.837, 109.160 102.019, 109.748 101.656 C 111.288 100.704, 113.127 106.806, 112.426 110.542 C 111.992 112.856, 112.241 113.878, 113.339 114.300 C 114.638 114.798, 114.513 115.831, 112.446 121.690 C 109.866 128.998, 109.361 134.938, 111.050 138.094 C 112.658 141.098, 114.291 139.240, 113.659 135.124 C 113.328 132.965, 113.641 130.518, 114.433 129.070 C 115.651 126.844, 115.799 127.308, 116.192 134.570 C 116.472 139.743, 116.166 143.619, 115.311 145.718 C 113.620 149.867, 113.659 150.528, 115.500 149 C 116.786 147.932, 117 148.271, 117 151.378 C 117 154.575, 117.293 155, 119.500 155 C 121.900 155, 122 154.751, 121.997 148.750 C 121.995 145.313, 121.300 135.300, 120.454 126.500 C 119.607 117.700, 119.175 109.456, 119.494 108.180 C 119.936 106.410, 118.867 104.326, 114.978 99.378 L 109.884 92.895 114.470 85.727 C 121.289 75.069, 123.200 68.109, 123.753 51.922 C 124.482 30.612, 120.010 14.758, 110.305 4.250 L 106.380 0 95.886 -0 C 86.082 -0, 85.098 0.186, 80.926 2.832 M 88.500 4.715 C 84.702 5.631, 80.019 8.222, 80.565 9.106 C 80.866 9.593, 80.025 10.487, 78.695 11.093 C 77.366 11.699, 75.547 13.726, 74.655 15.597 L 73.032 19 80.766 19.192 C 85.020 19.298, 90.971 19.410, 93.990 19.442 L 99.480 19.500 100.166 24 C 102.116 36.796, 100.248 72.687, 97.339 78.312 C 96.145 80.619, 96.110 81.428, 97.149 82.680 C 99.209 85.162, 95.993 86.650, 86.733 87.501 L 78.500 88.257 83.276 90.497 C 92.069 94.621, 94.020 98, 87.608 98 C 83.394 98, 82.584 98.883, 84.678 101.196 C 86.302 102.991, 86.490 102.927, 90.180 99.324 C 92.281 97.273, 94 95.053, 94 94.391 C 94 93.685, 94.816 93.401, 95.975 93.704 C 98.341 94.322, 105.452 90.329, 109.087 86.339 C 112.434 82.666, 115.358 75.484, 117.534 65.585 C 118.903 59.356, 119.152 54.990, 118.700 45.085 C 118.047 30.736, 116.152 22.342, 111.444 12.932 C 108.553 7.153, 107.684 6.222, 104.213 5.182 C 100.315 4.014, 92.381 3.778, 88.500 4.715 M 65.364 25.228 C 65.699 26.478, 65.989 30.425, 66.008 34 L 66.044 40.500 68.050 36.078 C 69.499 32.884, 70.359 31.959, 71.147 32.747 C 72.487 34.087, 70.661 42.644, 67.838 48.261 C 66.188 51.544, 65.983 53.960, 66.224 67.261 L 66.500 82.500 76 82.305 C 81.225 82.198, 86.945 81.843, 88.712 81.517 C 92.530 80.812, 92.406 81.353, 93.967 58.500 C 94.568 49.700, 95.337 38.736, 95.677 34.136 C 96.275 26.027, 96.231 25.792, 94.242 26.423 C 91.797 27.199, 70.718 25.223, 67.210 23.890 C 64.978 23.041, 64.811 23.162, 65.364 25.228 M 80.544 35.928 C 78.520 39.204, 84.986 58.852, 88.752 60.867 C 91.999 62.605, 93.198 60.372, 91.312 56.099 C 90.439 54.120, 88.323 48.711, 86.612 44.080 C 83.626 36.001, 81.918 33.706, 80.544 35.928 M 27.993 90.190 C 20.619 98.475, 19 100.925, 19 103.800 C 19 107.386, 21.247 110, 24.331 110 C 25.534 110, 27.056 110.860, 27.712 111.910 C 29.158 114.225, 33.896 115.401, 38.077 114.483 C 40.483 113.955, 41.554 112.874, 42.989 109.527 C 44.214 106.667, 45.829 104.801, 47.852 103.905 C 50.620 102.680, 52.660 99.327, 51.404 98.070 C 51.119 97.786, 48.325 98.471, 45.193 99.593 C 40.306 101.344, 39.341 102.119, 38.375 105.066 C 36.974 109.347, 32.873 110.314, 29.857 107.076 C 28.793 105.934, 27.008 105, 25.891 105 C 23.001 105, 23.695 100.615, 26.652 100.193 C 27.911 100.014, 29.296 98.699, 29.989 97.026 C 31.086 94.378, 31.398 94.243, 34.167 95.208 C 35.813 95.782, 37.396 96.870, 37.687 97.626 C 38.653 100.143, 43.959 98.957, 48.183 95.278 C 52.066 91.895, 47.083 89.629, 42 92.466 C 39.730 93.733, 39.270 93.648, 37 91.543 C 33.075 87.904, 30.388 87.500, 27.993 90.190 M 71.853 91.670 C 69.885 92.192, 69.054 94.834, 69.736 98.400 C 70.326 101.486, 71.012 101.635, 73.147 99.142 C 74.274 97.825, 74.460 96.787, 73.785 95.581 C 73.261 94.645, 73.081 93.231, 73.385 92.439 C 73.689 91.648, 73.839 91.052, 73.719 91.116 C 73.598 91.180, 72.759 91.429, 71.853 91.670 M 58.318 93.816 C 57.721 94.192, 57.285 96.425, 57.350 98.778 C 57.439 102.024, 57.834 102.986, 58.984 102.766 C 60.026 102.566, 60.545 101.147, 60.645 98.231 C 60.795 93.827, 60.173 92.648, 58.318 93.816 M 64.678 95.750 C 64.436 96.162, 64.246 98.412, 64.256 100.750 C 64.274 105.344, 66.118 106.517, 67.947 103.099 C 69.609 99.993, 66.409 92.799, 64.678 95.750 M 75.540 105.956 C 73.938 107.726, 73.917 108.060, 75.325 109.468 C 77.028 111.171, 78.233 117.870, 77.637 122.320 C 76.969 127.314, 78.812 123.689, 79.834 118 C 80.480 114.405, 80.483 112.089, 79.842 111.314 C 79.194 110.530, 79.259 109.385, 80.034 107.937 C 80.962 106.203, 80.924 105.567, 79.853 104.888 C 77.925 103.666, 77.522 103.766, 75.540 105.956 M 59.750 113.080 C 58.788 113.641, 58 114.704, 58 115.443 C 58 116.506, 58.809 116.582, 61.859 115.808 C 64.404 115.162, 66.958 115.170, 69.359 115.834 C 72.821 116.789, 73 116.720, 73 114.419 C 73 112.137, 72.674 112.002, 67.250 112.030 C 64.088 112.047, 60.712 112.519, 59.750 113.080 M 59.750 119.080 C 58.788 119.641, 58 120.756, 58 121.558 C 58 122.755, 58.351 122.798, 59.955 121.796 C 62.206 120.390, 63.937 121.463, 62.207 123.193 C 61.338 124.062, 61.333 124.696, 62.188 125.727 C 63.087 126.809, 62.869 127.222, 61.164 127.667 C 59.855 128.010, 59 129.024, 59 130.233 C 59 131.845, 59.436 132.099, 61.250 131.543 C 62.487 131.163, 65.525 130.614, 68 130.324 L 72.500 129.796 72.141 124.648 C 71.943 121.817, 71.268 119.169, 70.641 118.765 C 68.970 117.689, 61.781 117.897, 59.750 119.080 M 65.416 121.358 C 64.507 123.726, 65.369 126.500, 67.014 126.500 C 67.989 126.500, 68.500 125.497, 68.500 123.583 C 68.500 120.422, 66.366 118.883, 65.416 121.358 M 97 120.927 C 97 121.517, 96.325 122, 95.500 122 C 94.675 122, 94 122.675, 94 123.500 C 94 124.405, 94.926 125, 96.333 125 C 97.617 125, 98.704 125.563, 98.750 126.250 C 98.795 126.938, 99.325 131.100, 99.926 135.500 C 100.528 139.900, 101.273 146.088, 101.582 149.250 C 102.053 154.067, 102.457 155, 104.072 155 C 105.411 155, 105.994 154.312, 105.981 152.750 C 105.955 149.820, 103.298 132.126, 102.468 129.363 C 102.115 128.187, 102.315 126.923, 102.913 126.554 C 103.511 126.184, 104 125.178, 104 124.319 C 104 123.080, 103.704 123, 102.577 123.936 C 101.424 124.893, 101.092 124.681, 100.827 122.819 C 100.506 120.560, 97 118.827, 97 120.927 M 75.679 129.711 C 75.378 130.197, 75.496 131.185, 75.941 131.905 C 76.556 132.899, 76.927 132.927, 77.488 132.020 C 77.894 131.363, 77.776 130.376, 77.226 129.826 C 76.666 129.266, 75.985 129.216, 75.679 129.711 M 51.609 134.423 C 51.909 135.205, 52.788 136.089, 53.563 136.386 C 54.723 136.831, 54.755 136.581, 53.745 134.963 C 52.331 132.699, 50.799 132.312, 51.609 134.423 M 57 137.809 C 57 138.254, 57.634 139.485, 58.410 140.546 C 59.751 142.380, 59.912 142.389, 61.738 140.737 C 62.794 139.782, 64.383 139, 65.270 139 C 66.156 139, 67.160 138.550, 67.500 138 C 67.884 137.379, 66.010 137, 62.559 137 C 59.502 137, 57 137.364, 57 137.809 M 77.458 142.372 C 76.685 146.491, 77.132 149.417, 78.499 149.197 C 79.849 148.980, 80.405 140.368, 79.121 139.575 C 78.539 139.215, 77.825 140.415, 77.458 142.372" stroke="none" fill="black" fill-rule="evenodd"/>
	<path fill-opacity="0.421" d="M 81.313 2.994 C 75.881 6.109, 72.195 10.280, 70.039 15.750 C 69.334 17.538, 68.432 19, 68.034 19 C 67.636 19, 66.004 20.123, 64.406 21.496 L 61.500 23.992 61.500 52.746 C 61.500 68.561, 61.835 82.695, 62.245 84.156 C 62.886 86.438, 63.697 86.908, 68.012 87.502 C 71.336 87.959, 73.361 88.805, 74.004 90.007 C 74.538 91.005, 76.563 92.803, 78.505 94.003 L 82.035 96.185 79.767 97.955 C 78.520 98.928, 76.507 100.036, 75.294 100.416 C 74.081 100.796, 72.016 102.381, 70.705 103.938 C 69.115 105.828, 66.944 107.003, 64.176 107.470 C 59.084 108.330, 54 112.763, 54 116.342 C 54 117.739, 53.576 119.144, 53.059 119.464 C 52.541 119.784, 51.134 122.016, 49.931 124.424 C 48.338 127.614, 47.923 129.711, 48.402 132.151 C 48.764 133.993, 49.071 136.336, 49.084 137.358 C 49.097 138.380, 49.953 139.436, 50.985 139.706 C 52.017 139.976, 52.657 140.729, 52.408 141.380 C 52.158 142.031, 53.512 144.073, 55.416 145.919 C 58.306 148.720, 59.384 149.173, 61.939 148.662 C 64.884 148.073, 65 148.182, 65 151.525 C 65 154.565, 65.313 155, 67.500 155 C 69.638 155, 70.011 154.530, 70.077 151.750 C 70.171 147.746, 70.477 146.114, 72.002 141.493 C 72.661 139.498, 72.936 137.603, 72.615 137.282 C 72.294 136.961, 72.757 136.167, 73.644 135.518 C 74.531 134.870, 75.312 133.288, 75.378 132.002 C 75.545 128.793, 77.422 128.437, 78.755 131.361 C 79.723 133.486, 79.632 133.716, 77.993 133.288 C 76.520 132.903, 75.911 133.617, 75.079 136.705 C 72.932 144.681, 72.746 147.201, 74.022 151.066 C 75.092 154.309, 75.775 154.996, 77.910 154.978 C 79.335 154.966, 81.514 154.175, 82.753 153.221 C 84.968 151.516, 84.992 151.266, 84.170 138.493 C 83.425 126.926, 83.521 125.280, 85.042 123.500 C 85.981 122.400, 87.317 120.404, 88.010 119.064 C 89.146 116.867, 89.002 116.413, 86.546 114.455 C 84.323 112.683, 84.111 112.171, 85.394 111.679 C 86.287 111.337, 86.718 110.429, 86.393 109.581 C 86.059 108.712, 87.064 106.753, 88.791 104.905 C 91.155 102.376, 92.617 101.702, 95.934 101.612 C 99.931 101.505, 100.021 101.568, 98.101 103.121 C 96.917 104.079, 95.056 104.542, 93.549 104.254 C 90.811 103.731, 90 105.402, 92.523 106.370 C 95.515 107.518, 110.140 99.557, 107.250 98.354 C 106.563 98.068, 106 97.141, 106 96.294 C 106 95.120, 106.318 95.019, 107.342 95.869 C 108.080 96.481, 109.052 96.649, 109.502 96.241 C 109.952 95.834, 110.038 95.996, 109.693 96.602 C 109.347 97.208, 109.979 99.458, 111.095 101.602 C 112.483 104.265, 112.978 106.689, 112.658 109.253 C 112.318 111.976, 112.619 113.247, 113.752 113.881 C 115.164 114.671, 115.154 115.157, 113.657 118.900 C 109.928 128.218, 109.378 139, 112.631 139 C 114.167 139, 114.422 136.727, 113.171 134.184 C 112.648 133.120, 112.958 131.252, 114.013 129.109 L 115.683 125.719 116.302 134.486 C 116.789 141.393, 116.589 143.894, 115.359 146.272 C 113.993 148.914, 113.986 149.219, 115.301 148.715 C 116.398 148.294, 116.977 149.064, 117.447 151.569 C 117.919 154.087, 118.611 155, 120.045 155 C 122.533 155, 122.583 151.500, 120.432 127.886 C 119.570 118.421, 119.129 109.622, 119.452 108.334 C 119.894 106.574, 119.015 104.689, 115.911 100.746 C 113.640 97.861, 111.381 95.350, 110.891 95.167 C 109.150 94.515, 110.052 91.946, 114.019 86.261 C 120.087 77.563, 123.126 67, 123.732 52.500 C 124.610 31.473, 120.077 15.353, 110.403 5.103 L 105.587 0 96.043 0.009 C 87.295 0.018, 86.068 0.267, 81.313 2.994 M 90.903 4.120 C 85.400 4.923, 79.685 7.682, 80.568 9.110 C 80.916 9.673, 80.261 10.380, 79.112 10.681 C 77.042 11.222, 72.310 17.643, 73.272 18.605 C 73.547 18.880, 79.514 19.297, 86.533 19.533 C 93.551 19.768, 99.470 20.136, 99.685 20.352 C 99.900 20.567, 100.349 26.766, 100.681 34.127 C 101.365 49.262, 99.559 73.013, 97.406 77.179 C 96.612 78.717, 96.271 81.107, 96.607 82.787 C 97.269 86.093, 95.822 86.863, 88.500 87.105 C 86.300 87.177, 83.151 87.525, 81.501 87.878 C 78.537 88.512, 78.571 88.553, 84.493 91.510 C 91.939 95.227, 93.042 98, 87.073 98 C 82.588 98, 82.215 98.475, 84.617 101.129 C 86.158 102.832, 86.417 102.765, 90.099 99.708 C 92.225 97.944, 93.972 95.938, 93.982 95.250 C 93.992 94.563, 95.205 94, 96.677 94 C 98.149 94, 101.819 92.313, 104.833 90.250 C 111.173 85.911, 113.791 81.163, 117.137 67.929 C 118.948 60.768, 119.169 57.661, 118.727 45.556 C 118.422 37.198, 117.547 29.068, 116.568 25.500 C 114.152 16.689, 109.521 7.353, 106.842 5.892 C 103.597 4.122, 96.383 3.320, 90.903 4.120 M 65.351 31.281 C 65.693 35.801, 66 39.725, 66.034 40 C 66.068 40.275, 66.862 38.958, 67.798 37.073 C 68.734 35.188, 70.123 33.442, 70.885 33.194 C 72.820 32.564, 71.599 38.874, 68.431 45.871 C 66.186 50.832, 66 52.447, 66 67.038 C 66 77.057, 66.379 82.960, 67.037 83.179 C 68.311 83.604, 91.335 81.949, 91.922 81.390 C 92.457 80.882, 95.899 38.230, 95.957 31.395 L 96 26.291 83.750 25.707 C 77.013 25.386, 69.977 24.659, 68.115 24.092 L 64.730 23.062 65.351 31.281 M 81 39.395 C 81 44.367, 84.140 55.364, 86.527 58.750 C 88.225 61.158, 92 61.835, 92 59.731 C 92 59.033, 90.718 55.321, 89.150 51.481 C 87.583 47.641, 85.521 42.362, 84.567 39.750 C 82.401 33.812, 81 33.672, 81 39.395 M 27.455 90.750 C 21.746 97.218, 19 101.502, 19 103.940 C 19 107.057, 21.714 110, 24.588 110 C 25.650 110, 27.046 110.844, 27.690 111.876 C 29.161 114.231, 34.896 115.370, 38.460 114.015 C 40.240 113.339, 41.700 111.627, 42.726 109.015 C 43.584 106.831, 45.051 104.801, 45.985 104.505 C 46.919 104.208, 48.722 102.860, 49.992 101.509 C 53.239 98.052, 50.744 97.323, 44.631 99.944 C 41.047 101.480, 39.558 102.813, 38.443 105.483 C 37.264 108.303, 36.425 109, 34.209 109 C 32.682 109, 30.678 108.105, 29.732 107 C 28.790 105.900, 27.115 105, 26.010 105 C 23.249 105, 23.274 101.003, 26.040 100.279 C 27.162 99.986, 28.767 98.417, 29.608 96.792 C 30.721 94.639, 31.592 94.026, 32.818 94.532 C 33.743 94.914, 35.288 95.453, 36.250 95.730 C 37.212 96.007, 38 96.856, 38 97.617 C 38 99.786, 41.653 99.244, 46.144 96.409 C 49.882 94.049, 50.107 93.678, 48.669 92.240 C 47.245 90.816, 46.710 90.811, 43.221 92.181 C 39.511 93.638, 39.242 93.605, 36.621 91.350 C 33.384 88.566, 29.602 88.318, 27.455 90.750 M 70.584 92.864 C 69.765 94.190, 70.219 101, 71.127 101 C 72.610 101, 73.819 97.503, 73.291 94.739 C 72.770 92.018, 71.606 91.211, 70.584 92.864 M 57.655 94.750 C 56.633 96.407, 57.786 102.500, 59.122 102.500 C 60.071 102.500, 60.511 101.177, 60.535 98.250 C 60.558 95.541, 60.126 94, 59.344 94 C 58.670 94, 57.910 94.338, 57.655 94.750 M 64.870 95.250 C 64.370 96.209, 64.577 105, 65.100 105 C 65.460 105, 66.311 104.330, 66.991 103.511 C 68.374 101.844, 67.541 95, 65.955 95 C 65.430 95, 64.941 95.112, 64.870 95.250 M 75.288 105.913 C 73.112 107.729, 73.107 107.787, 74.998 109.498 C 76.513 110.869, 76.982 112.855, 77.210 118.869 C 77.497 126.430, 77.513 126.471, 78.962 123.322 C 79.766 121.574, 80.779 120.363, 81.212 120.631 C 81.645 120.899, 82 120.641, 82 120.059 C 82 119.477, 81.494 119, 80.875 119 C 80.147 119, 79.972 117.891, 80.379 115.857 C 80.739 114.054, 80.529 112.137, 79.885 111.362 C 79.042 110.345, 79.155 109.412, 80.344 107.598 C 81.764 105.430, 81.768 105.125, 80.381 104.593 C 78.173 103.745, 77.755 103.854, 75.288 105.913 M 59.750 112.689 C 58.788 112.941, 58 113.901, 57.999 114.823 C 57.998 116.243, 59.147 116.500, 65.497 116.500 C 72.606 116.500, 72.995 116.383, 72.998 114.250 C 73 112.164, 72.581 112.008, 67.250 112.116 C 64.088 112.180, 60.712 112.438, 59.750 112.689 M 59.200 119.200 C 58.540 119.860, 58 121.296, 58 122.391 C 58 124.307, 58.051 124.312, 59.348 122.538 C 60.125 121.476, 61.206 121.009, 61.897 121.436 C 62.756 121.967, 62.794 122.543, 62.031 123.462 C 61.445 124.169, 61.246 125.479, 61.590 126.373 C 61.994 127.427, 61.689 128, 60.724 128 C 59.904 128, 58.986 128.944, 58.684 130.099 C 58.175 132.048, 58.398 132.139, 61.818 131.384 C 63.843 130.937, 67.105 130.574, 69.066 130.578 L 72.631 130.585 72.478 125.460 C 72.394 122.642, 72.001 119.810, 71.604 119.168 C 70.653 117.630, 60.745 117.655, 59.200 119.200 M 97 121 C 97 121.550, 96.287 122, 95.417 122 C 94.546 122, 94.029 122.563, 94.268 123.250 C 94.507 123.938, 95.669 124.464, 96.851 124.421 C 98.472 124.361, 99 124.928, 99 126.728 C 99 128.040, 99.430 131.001, 99.956 133.307 C 100.481 135.613, 101.197 141.438, 101.545 146.250 C 102.105 153.975, 102.403 155, 104.090 155 C 105.140 155, 106 154.634, 106 154.186 C 106 151.854, 103.017 131.209, 102.477 129.800 C 102.130 128.896, 102.383 127.153, 103.039 125.927 C 104.049 124.041, 103.997 123.787, 102.708 124.282 C 101.671 124.680, 100.988 124.089, 100.573 122.433 C 99.990 120.111, 97 118.911, 97 121 M 65.500 122 C 65.160 122.550, 65.316 123, 65.847 123 C 66.378 123, 66.552 124.013, 66.233 125.250 C 65.716 127.254, 65.836 127.350, 67.327 126.128 C 69.377 124.446, 69.534 121, 67.559 121 C 66.766 121, 65.840 121.450, 65.500 122 M 51.068 131.404 C 51.017 133.576, 52.050 135.276, 55.166 138.154 C 59.717 142.355, 61.113 142.773, 63 140.500 C 63.685 139.675, 65.063 139, 66.063 139 C 67.064 139, 68.133 138.593, 68.440 138.096 C 69.153 136.944, 59.331 136.234, 57.428 137.300 C 56.451 137.847, 56 137.591, 56 136.491 C 56 135.606, 55.547 135.162, 54.993 135.504 C 54.439 135.847, 53.726 135.311, 53.409 134.313 C 53.092 133.316, 52.451 131.600, 51.984 130.500 C 51.249 128.767, 51.126 128.887, 51.068 131.404 M 78.037 139 C 76.565 143.528, 76.512 148.822, 77.924 150.292 C 79.634 152.073, 80.594 148.125, 80.062 141.500 L 79.500 134.500 78.037 139" stroke="none" fill="black" fill-rule="evenodd"/>
	<path fill-opacity="0.394" d="M 84 1.590 C 79.389 3.582, 73.327 9.516, 70.812 14.500 C 69.702 16.700, 67.834 19.257, 66.662 20.182 C 65.489 21.106, 64.825 22.158, 65.186 22.519 C 66.525 23.858, 73.823 25.022, 84.894 25.662 L 96.288 26.321 95.596 40.411 C 94.811 56.394, 92.654 80.689, 91.961 81.354 C 91.403 81.890, 66.838 84.172, 66.396 83.729 C 66.224 83.557, 66.024 76.374, 65.950 67.765 C 65.827 53.322, 66.008 51.627, 68.284 45.807 C 71.279 38.150, 72.338 33, 70.919 33 C 70.352 33, 68.992 35.025, 67.897 37.500 C 66.802 39.975, 65.762 42, 65.585 42 C 65.408 42, 65.180 37.837, 65.078 32.750 C 64.885 23.123, 63.685 19.552, 62.341 24.605 C 61.355 28.312, 61.260 80.648, 62.234 84.109 C 62.859 86.332, 63.672 86.801, 67.734 87.285 C 71.596 87.745, 73.354 88.672, 77.003 92.176 C 81.294 96.296, 81.424 96.582, 79.753 98.250 C 78.789 99.213, 77.520 100, 76.933 100 C 74.894 100, 68.904 105.307, 69.421 106.655 C 69.809 107.666, 68.751 108, 65.158 108 C 61.132 108, 59.865 108.503, 57.111 111.196 C 54.759 113.496, 53.967 115.048, 54.289 116.731 C 54.591 118.310, 54.128 119.396, 52.868 120.071 C 51.841 120.620, 51 121.955, 51 123.035 C 51 124.116, 50.602 125, 50.117 125 C 47.372 125, 48.795 138.600, 51.655 139.698 C 52.458 140.006, 52.884 140.859, 52.603 141.593 C 52.318 142.335, 53.736 144.301, 55.795 146.018 C 58.604 148.360, 60.165 148.979, 62.250 148.578 C 64.824 148.084, 65 148.273, 65 151.525 C 65 154.565, 65.313 155, 67.500 155 C 69.786 155, 70 154.625, 70 150.626 C 70 148.220, 70.641 144.436, 71.424 142.216 C 72.207 139.997, 72.545 137.878, 72.175 137.509 C 71.806 137.139, 72.220 136.311, 73.095 135.668 C 73.971 135.026, 75.016 132.747, 75.416 130.605 L 76.145 126.710 77.913 129.617 C 81.255 135.113, 81.268 151, 77.931 151 C 76.414 151, 76.145 143.588, 77.542 140.246 C 79.338 135.948, 79.435 132.692, 77.750 133.239 C 76.371 133.687, 73.207 142.185, 73.080 145.782 C 72.949 149.516, 75.698 155.001, 77.699 154.995 C 78.690 154.992, 80.712 153.980, 82.194 152.745 L 84.889 150.500 83.790 137.703 C 82.724 125.294, 82.753 124.862, 84.742 123.468 C 88.983 120.498, 89.366 114, 85.300 114 C 84.585 114, 84 113.550, 84 113 C 84 112.450, 84.450 112, 85 112 C 85.550 112, 86 110.959, 86 109.687 C 86 105.951, 91.144 101.799, 96.067 101.560 C 100.171 101.361, 100.225 101.399, 98.188 103.048 C 96.874 104.113, 95.059 104.559, 93.299 104.250 C 90.693 103.793, 90.611 103.876, 92.116 105.460 C 93.631 107.054, 94.175 106.937, 100.866 103.568 C 104.790 101.592, 108 99.482, 108 98.880 C 108 98.279, 107.421 98.008, 106.714 98.279 C 105.943 98.575, 105.429 98.008, 105.429 96.862 C 105.429 95.656, 105.933 95.144, 106.796 95.475 C 107.548 95.764, 108.652 96, 109.248 96 C 109.845 96, 110.074 96.259, 109.757 96.576 C 109.440 96.893, 110.274 99.541, 111.610 102.459 C 113.535 106.663, 113.835 108.304, 113.056 110.353 C 112.279 112.395, 112.409 113.130, 113.673 113.837 C 115.120 114.647, 115.068 115.341, 113.137 121.061 C 110.560 128.693, 110.194 139, 112.500 139 C 114.240 139, 114.413 137.640, 113.007 135.014 C 112.286 133.667, 112.522 131.973, 113.868 128.829 L 115.722 124.500 116.458 133.634 C 116.948 139.715, 116.827 143.454, 116.097 144.819 C 114.747 147.342, 114.555 150.251, 115.876 148.166 C 116.551 147.102, 116.851 147.169, 117.361 148.498 C 117.712 149.414, 118 151.252, 118 152.582 C 118 154.333, 118.551 155, 120 155 C 122.477 155, 122.479 154.902, 120.422 130.355 C 119.554 119.995, 119.047 110.165, 119.295 108.510 C 119.647 106.160, 119.004 104.623, 116.361 101.500 C 108.240 91.905, 108.682 93.431, 112.466 88.049 C 121.102 75.762, 123.414 67.403, 123.405 48.500 C 123.395 27.479, 119.431 14.637, 109.925 4.826 L 105.249 0 96.375 0.039 C 90.746 0.064, 86.220 0.631, 84 1.590 M 89.500 3.929 C 87.850 4.327, 85.402 5.243, 84.059 5.964 C 79.108 8.623, 71.900 17.233, 73.383 18.716 C 73.683 19.016, 79.682 19.540, 86.714 19.881 C 97.085 20.383, 99.515 20.783, 99.579 22 C 99.623 22.825, 100.016 27.469, 100.453 32.321 C 101.445 43.322, 99.421 72.180, 97.346 76.629 C 96.543 78.351, 96.025 81.021, 96.193 82.563 C 96.554 85.862, 94.553 86.742, 86.332 86.900 C 78.118 87.059, 77.180 87.874, 82.036 90.632 C 84.328 91.935, 86.817 93, 87.567 93 C 89.107 93, 91.412 96.666, 90.253 97.272 C 89.839 97.488, 88.037 97.568, 86.250 97.450 C 82.499 97.201, 81.695 99.704, 84.886 101.697 C 86.512 102.712, 87.412 102.262, 91.404 98.437 C 93.951 95.997, 96.854 94, 97.855 94 C 98.856 94, 102.261 92.148, 105.423 89.884 C 111.743 85.358, 113.711 81.894, 117.003 69.500 C 121.826 51.340, 119.743 28.039, 111.895 12.374 C 109.059 6.712, 108.445 6.125, 103.798 4.624 C 98.518 2.919, 94.496 2.723, 89.500 3.929 M 80.997 39.167 C 80.992 43.943, 84.923 56.540, 87.171 58.953 C 89.029 60.947, 92.020 61.754, 91.980 60.250 C 91.969 59.837, 90.010 54.347, 87.628 48.049 C 83.130 36.162, 81.002 33.312, 80.997 39.167 M 27.174 91.314 C 25.978 92.587, 25 93.959, 25 94.362 C 25 94.766, 23.875 96.087, 22.499 97.298 C 18.880 100.485, 18.212 105.212, 20.988 107.988 C 22.310 109.310, 23.945 109.986, 25.092 109.686 C 26.142 109.412, 27 109.563, 27 110.022 C 27 114.082, 37.443 115.557, 41 112 C 42.100 110.900, 43 109.144, 43 108.099 C 43 106.984, 44.457 105.338, 46.524 104.118 C 49.864 102.148, 51.832 99.498, 50.755 98.422 C 50.485 98.151, 48.067 98.784, 45.382 99.827 C 41.620 101.290, 40.097 102.560, 38.742 105.362 C 37.326 108.292, 36.426 109, 34.115 109 C 32.536 109, 30.685 108.325, 30 107.500 C 29.315 106.675, 27.712 106, 26.437 106 C 25.161 106, 23.846 105.559, 23.513 105.021 C 22.645 103.617, 24.805 100, 26.510 100 C 27.301 100, 28.647 98.650, 29.500 97 C 30.353 95.350, 31.519 94, 32.091 94 C 33.730 94, 37.387 96.173, 38.663 97.905 C 39.709 99.324, 40.288 99.259, 44.413 97.254 C 49.419 94.822, 50.565 92, 46.547 92 C 45.198 92, 42.939 92.526, 41.528 93.169 C 39.267 94.199, 38.632 94.021, 36.176 91.669 C 32.753 88.389, 30.023 88.282, 27.174 91.314 M 70.661 92.739 C 69.933 93.918, 70.301 101, 71.091 101 C 72.880 101, 73.739 93.575, 72.069 92.543 C 71.557 92.226, 70.924 92.315, 70.661 92.739 M 57.597 94.844 C 56.870 96.019, 58.092 103, 59.024 103 C 60.334 103, 60.971 100.105, 60.348 96.989 C 59.761 94.056, 58.629 93.173, 57.597 94.844 M 64.590 96.627 C 64.246 97.521, 64.404 98.782, 64.941 99.429 C 65.477 100.075, 65.651 101.706, 65.327 103.052 C 64.772 105.357, 64.841 105.403, 66.496 103.837 C 67.841 102.565, 68.097 101.329, 67.582 98.587 C 66.866 94.771, 65.616 93.952, 64.590 96.627 M 74.735 105.694 C 73.143 107.286, 73.145 107.503, 74.770 109.294 C 75.970 110.616, 76.653 113.547, 77 118.851 C 77.496 126.446, 77.510 126.478, 78.947 123.357 C 79.797 121.511, 80.931 120.420, 81.697 120.714 C 82.414 120.989, 83 120.716, 83 120.107 C 83 119.498, 82.325 119, 81.500 119 C 79.685 119, 79.519 115.881, 81.242 114.158 C 82.230 113.170, 82.182 112.731, 81.005 112.003 C 79.805 111.262, 79.739 110.530, 80.653 108.109 C 81.571 105.676, 81.508 105.025, 80.307 104.564 C 77.882 103.634, 76.518 103.910, 74.735 105.694 M 60.580 112.336 C 58.698 113.139, 57.601 114.384, 57.494 115.835 C 57.365 117.580, 57.686 117.911, 58.914 117.303 C 59.786 116.871, 63.313 116.513, 66.751 116.509 C 72.455 116.501, 73.001 116.314, 73.001 114.375 C 73 111.122, 66.085 109.987, 60.580 112.336 M 61 118.288 C 59.358 119.115, 58.384 120.557, 58.162 122.492 L 57.825 125.438 59.815 122.980 L 61.805 120.523 61.466 124.011 C 61.280 125.930, 61.099 127.668, 61.064 127.872 C 61.029 128.077, 60.290 127.656, 59.423 126.936 C 58.031 125.781, 57.884 126.031, 58.173 129.063 C 58.441 131.875, 58.864 132.434, 60.500 132.138 C 61.600 131.940, 64.862 131.561, 67.750 131.296 L 73 130.815 73 124.954 L 73 119.094 69.250 118.053 C 64.526 116.741, 64.047 116.754, 61 118.288 M 96.250 121.422 C 93.463 122.725, 93.277 124.422, 95.999 123.711 C 99.106 122.898, 99.244 123.415, 101.219 143.250 C 102.258 153.680, 102.601 155, 104.274 155 C 105.789 155, 106.057 154.460, 105.642 152.250 C 105.357 150.738, 104.851 146.800, 104.518 143.500 C 104.184 140.200, 103.413 135.153, 102.804 132.285 C 101.908 128.063, 101.964 126.730, 103.099 125.285 C 104.375 123.660, 104.344 123.623, 102.750 124.872 C 101.259 126.042, 101 126.033, 101 124.814 C 101 121.947, 98.676 120.287, 96.250 121.422 M 65.395 122.170 C 64.909 122.957, 65.217 123.131, 66.336 122.701 C 67.251 122.350, 68 122.461, 68 122.948 C 68 123.435, 67.438 124.034, 66.750 124.280 C 66.063 124.525, 65.808 125.058, 66.183 125.463 C 67.264 126.628, 69 125.073, 69 122.941 C 69 120.820, 66.553 120.297, 65.395 122.170 M 53.500 125 C 53.840 125.550, 54.316 126, 54.559 126 C 54.802 126, 55 125.550, 55 125 C 55 124.450, 54.523 124, 53.941 124 C 53.359 124, 53.160 124.450, 53.500 125 M 51.070 130.168 C 50.983 134.709, 51.810 137, 53.534 137 C 54.261 137, 55.740 138.125, 56.821 139.500 C 59.053 142.337, 61.185 142.687, 62.991 140.511 C 63.671 139.692, 64.559 139.228, 64.966 139.479 C 65.373 139.730, 66.559 139.290, 67.603 138.500 C 69.361 137.169, 69.206 137.048, 65.500 136.849 C 63.300 136.731, 60.263 136.718, 58.750 136.821 C 57.237 136.924, 56 136.556, 56 136.004 C 56 135.452, 55.325 135, 54.500 135 C 53.632 135, 52.970 134.052, 52.930 132.750 C 52.891 131.512, 52.473 129.600, 52 128.500 C 51.306 126.885, 51.127 127.206, 51.070 130.168" stroke="none" fill="black" fill-rule="evenodd"/>
	<path fill-opacity="0.975" d="M 83.500 2.155 C 77.795 5.101, 73.637 9.370, 71.012 14.974 C 69.634 17.916, 67.905 20.053, 66.635 20.385 C 65.049 20.800, 64.817 21.217, 65.687 22.087 C 67.294 23.694, 73.700 24.794, 86.142 25.599 L 96.784 26.288 96.421 31.894 C 96.221 34.977, 95.574 45.150, 94.983 54.500 C 94.392 63.850, 93.679 73.807, 93.398 76.627 L 92.887 81.754 87.193 82.356 C 84.062 82.686, 78.082 83.247, 73.905 83.602 L 66.311 84.248 65.655 77.977 C 64.312 65.121, 64.858 52.200, 66.915 48.167 C 69.316 43.461, 72.100 33, 70.952 33 C 70.480 33, 69.060 35.137, 67.797 37.750 L 65.500 42.500 65.209 33.009 C 64.911 23.279, 63.705 19.512, 62.559 24.730 C 62.206 26.341, 61.822 39.998, 61.708 55.079 C 61.497 82.894, 61.998 87.328, 65.302 86.913 C 69.532 86.382, 72.238 87.285, 74.698 90.046 C 79.347 95.263, 84.911 97.769, 90.372 97.106 C 92.220 96.882, 88.559 93.937, 83.398 91.495 C 80.429 90.090, 78 88.578, 78 88.133 C 78 87.688, 82.162 86.914, 87.250 86.412 L 96.500 85.500 96.166 81.703 C 95.983 79.615, 96.335 77.302, 96.948 76.563 C 98.741 74.402, 100.055 59.700, 99.947 43 C 99.892 34.475, 99.693 26.150, 99.504 24.500 C 99.316 22.850, 99.126 21.163, 99.081 20.750 C 99.037 20.337, 92.925 20, 85.500 20 C 78.075 20, 72 19.716, 72 19.368 C 72 17.884, 76.337 11.890, 78.089 10.952 C 79.140 10.390, 80 9.303, 80 8.537 C 80 6.476, 90.277 2.997, 96.288 3.022 C 99.162 3.034, 103.310 3.866, 105.535 4.877 C 108.981 6.442, 110.044 7.738, 112.818 13.757 C 117.688 24.321, 119.375 33.367, 119.391 49 C 119.414 70.300, 114.907 83.735, 105.555 90.250 C 102.594 92.313, 98.966 94, 97.492 94 C 95.654 94, 94.649 94.628, 94.290 96 C 94.002 97.100, 93.407 98, 92.968 98 C 92.529 98, 90.908 99.336, 89.367 100.970 L 86.564 103.939 84.354 101.863 C 83.139 100.721, 82.385 99.160, 82.679 98.394 C 83.391 96.539, 81.567 96.611, 80 98.500 C 79.315 99.325, 78.023 100.014, 77.128 100.032 C 74.937 100.074, 70 104.521, 70 106.452 C 70 107.622, 68.890 108, 65.450 108 C 61.631 108, 60.340 108.545, 57.405 111.395 C 54.641 114.079, 54.039 115.307, 54.529 117.260 C 54.951 118.943, 54.682 119.908, 53.684 120.291 C 51.460 121.144, 48.988 126.867, 49.100 130.904 C 49.239 135.939, 50.456 139.549, 51.905 139.228 C 52.607 139.072, 53 139.743, 52.822 140.793 C 52.633 141.910, 53.934 143.881, 56.137 145.816 C 59.820 149.049, 62.382 149.809, 63.500 148 C 64.891 145.749, 65.777 147.247, 65.273 151 C 64.770 154.749, 64.895 155, 67.252 155 C 69.609 155, 69.803 154.608, 70.341 148.750 C 71.192 139.486, 72.124 135.630, 73.813 134.395 C 74.644 133.787, 75.077 132.643, 74.774 131.853 C 74.471 131.063, 74.815 129.606, 75.538 128.617 C 76.766 126.937, 76.950 127.007, 78.288 129.659 C 80.217 133.483, 81.361 147.861, 79.877 149.648 C 78.102 151.787, 77.271 151.258, 76.575 147.549 C 76.168 145.380, 76.546 142.207, 77.592 139.010 C 79.183 134.144, 78.949 131.583, 77.094 133.567 C 76.614 134.080, 75.463 137.160, 74.536 140.410 C 72.964 145.924, 72.962 146.612, 74.508 150.660 C 76.436 155.709, 78.285 156.145, 82.232 152.485 C 84.305 150.564, 84.822 149.326, 84.426 147.235 C 84.142 145.731, 83.579 139.887, 83.177 134.250 C 82.611 126.320, 82.729 124, 83.697 124 C 85.059 124, 88 118.981, 88 116.657 C 88 113.868, 81.618 112.948, 80.604 115.590 C 79.837 117.589, 80.670 119, 82.618 119 C 83.443 119, 83.825 119.474, 83.467 120.053 C 83.110 120.632, 82.295 120.930, 81.658 120.716 C 81.021 120.502, 79.852 121.715, 79.061 123.413 C 77.638 126.464, 77.614 126.407, 77 118.582 C 76.480 111.951, 76.025 110.428, 74.200 109.217 L 72.022 107.771 74.735 105.636 C 78.810 102.431, 83.267 103.998, 80.892 107.801 C 79.087 110.692, 81.297 113.447, 84.183 111.902 C 85.267 111.322, 85.920 110.233, 85.632 109.482 C 85.344 108.732, 87.104 105.954, 89.543 103.309 C 92.617 99.977, 93.982 99.037, 93.989 100.250 C 94.002 102.356, 93.500 102.338, 99.818 100.461 C 103.564 99.349, 105 98.425, 105 97.128 C 105 94.670, 106.067 93.810, 107.569 95.057 C 108.812 96.089, 110.828 94.495, 109.703 93.370 C 109.430 93.096, 111.193 89.864, 113.622 86.186 C 121.721 73.923, 125.117 56.789, 123.021 38.762 C 121.095 22.200, 117.555 13.186, 109.661 4.750 L 105.217 0 96.358 0.044 C 89.424 0.079, 86.631 0.537, 83.500 2.155 M 81.390 40.882 C 82.925 52.457, 88.200 63.133, 91.016 60.365 C 91.887 59.508, 91.781 58.477, 90.582 56.158 C 89.708 54.469, 87.603 49.243, 85.902 44.544 C 82.426 34.937, 80.381 33.277, 81.390 40.882 M 27.297 91.619 C 26.309 93.060, 24.469 95.267, 23.208 96.523 C 19.014 100.703, 18.542 108.766, 22.468 109.150 C 23.310 109.233, 24.563 109.345, 25.250 109.400 C 25.938 109.455, 27.320 110.513, 28.323 111.750 C 31.074 115.147, 38.122 114.931, 40.927 111.365 C 42.067 109.916, 43.001 108.003, 43.003 107.115 C 43.004 106.227, 44.686 104.600, 46.741 103.500 C 48.795 102.400, 50.631 100.691, 50.821 99.702 C 51.148 97.992, 50.977 97.986, 47.333 99.567 C 45.225 100.481, 42.889 101.253, 42.143 101.281 C 41.397 101.310, 39.950 103.283, 38.929 105.667 C 37.433 109.156, 36.575 110, 34.526 110 C 33.126 110, 31.210 109.100, 30.268 108 C 29.318 106.891, 27.318 106, 25.778 106 C 23.923 106, 23 105.479, 23 104.434 C 23 101.953, 24.933 99, 26.557 99 C 27.374 99, 28.555 97.875, 29.182 96.500 C 29.808 95.125, 30.953 94, 31.726 94 C 33.689 94, 37.344 96.027, 38.300 97.646 C 38.740 98.391, 39.536 99, 40.070 99 C 41.658 99, 49 94.057, 49 92.987 C 49 91.505, 43.656 91.800, 41.463 93.403 C 39.747 94.658, 39.194 94.500, 36.237 91.903 C 32.142 88.308, 29.623 88.228, 27.297 91.619 M 70.495 93.008 C 69.577 94.493, 70.977 100.132, 72.092 99.443 C 73.142 98.794, 72.946 93.084, 71.851 92.408 C 71.459 92.166, 70.849 92.436, 70.495 93.008 M 57.590 95.627 C 57.246 96.521, 57.431 97.814, 58 98.500 C 58.569 99.186, 58.725 100.552, 58.347 101.537 C 57.875 102.767, 58.027 103.101, 58.830 102.605 C 59.474 102.207, 60 100.109, 60 97.941 C 60 93.923, 58.716 92.691, 57.590 95.627 M 110.498 96.152 C 110.148 97.061, 110.820 99.910, 111.992 102.483 C 113.477 105.742, 113.921 108.085, 113.455 110.206 C 113.006 112.251, 113.216 113.516, 114.097 114.060 C 115.149 114.710, 114.971 116.212, 113.189 121.685 C 111.080 128.165, 110.263 136.930, 111.639 138.306 C 112.957 139.624, 113.891 137.844, 113.047 135.623 C 112.454 134.064, 112.702 131.726, 113.813 128.408 L 115.456 123.500 116.154 128 C 117.258 135.119, 117.105 143.934, 115.836 146.316 C 114.784 148.290, 114.832 148.368, 116.336 147.128 C 117.846 145.882, 118 146.183, 118 150.378 C 118 154.014, 118.353 155, 119.656 155 C 121.156 155, 121.251 153.504, 120.662 139.214 C 120.304 130.531, 119.528 120.817, 118.939 117.625 C 118.197 113.615, 118.184 110.912, 118.895 108.872 C 119.815 106.233, 119.574 105.529, 116.618 102.211 C 114.800 100.170, 112.822 97.600, 112.223 96.500 C 111.261 94.733, 111.060 94.693, 110.498 96.152 M 65.273 99.995 C 65.497 103.936, 66.279 104.976, 67.515 102.976 C 68.354 101.618, 67.088 96, 65.943 96 C 65.450 96, 65.148 97.798, 65.273 99.995 M 104 99.700 C 102.625 100.577, 100.247 102.154, 98.715 103.204 C 97.043 104.349, 95.143 104.863, 93.965 104.489 C 92.849 104.135, 92 104.327, 92 104.933 C 92 106.900, 96.210 106.027, 101.607 102.939 C 106.649 100.054, 109.122 97.935, 107.309 98.052 C 106.864 98.081, 105.375 98.823, 104 99.700 M 59.750 112.548 C 56.610 114.279, 55.708 118.744, 58.750 117.497 C 62.091 116.127, 68.718 115.779, 70.750 116.866 C 72.518 117.812, 72.879 117.620, 73.427 115.434 C 73.776 114.045, 73.865 112.591, 73.626 112.203 C 72.742 110.774, 62.507 111.028, 59.750 112.548 M 60 118.238 C 58.625 118.965, 57.538 120.333, 57.583 121.280 C 57.629 122.226, 57.742 125.299, 57.833 128.108 C 57.999 133.178, 58.021 133.211, 60.750 132.442 C 62.263 132.017, 65.731 131.405, 68.458 131.084 L 73.416 130.500 73.133 125 C 72.977 121.975, 72.473 119.112, 72.012 118.637 C 70.536 117.117, 62.619 116.854, 60 118.238 M 98.460 122.500 C 100.430 132.489, 101.987 144.276, 101.993 149.250 C 101.999 153.917, 102.310 155, 103.645 155 C 105.075 155, 105.203 154.116, 104.629 148.250 C 103.348 135.169, 103.077 133.332, 102.022 130.558 C 101.223 128.456, 101.275 127.364, 102.229 126.186 C 103.217 124.966, 103.222 124.783, 102.250 125.367 C 101.493 125.822, 101 125.578, 101 124.750 C 101 123.998, 100.295 122.509, 99.434 121.441 C 97.945 119.594, 97.898 119.646, 98.460 122.500 M 65.540 121.936 C 65.153 122.562, 65.515 122.740, 66.448 122.382 C 67.302 122.054, 68 122.247, 68 122.810 C 68 123.373, 67.438 124.034, 66.750 124.280 C 66.063 124.525, 65.862 125.112, 66.304 125.584 C 67.194 126.533, 69.141 124.048, 68.671 122.563 C 68.224 121.147, 66.269 120.756, 65.540 121.936 M 59.667 122.667 C 58.289 124.044, 59.031 127, 60.750 126.985 C 62.187 126.972, 62.243 126.807, 61.064 126.061 C 59.874 125.308, 59.853 124.883, 60.937 123.576 C 62.183 122.074, 61.062 121.271, 59.667 122.667 M 53.543 123.931 C 53.226 124.443, 53.425 125.144, 53.984 125.490 C 54.543 125.835, 55 125.416, 55 124.559 C 55 122.802, 54.400 122.544, 53.543 123.931 M 94.813 123.683 C 95.534 123.972, 96.397 123.936, 96.729 123.604 C 97.061 123.272, 96.471 123.036, 95.417 123.079 C 94.252 123.127, 94.015 123.364, 94.813 123.683 M 50.809 130.204 C 50.508 133.358, 50.857 134.794, 52.204 135.954 C 53.192 136.804, 54.844 138.231, 55.875 139.125 C 56.906 140.019, 57.936 141.308, 58.163 141.990 C 58.465 142.894, 59.649 142.656, 62.524 141.115 C 64.694 139.952, 67.040 139, 67.735 139 C 68.431 139, 69 138.601, 69 138.114 C 69 136.940, 60.518 135.701, 57.987 136.504 C 56.581 136.950, 56 136.676, 56 135.567 C 56 134.705, 55.489 134.113, 54.863 134.250 C 53.586 134.531, 51.758 129.178, 52.473 127.250 C 52.729 126.563, 52.549 126, 52.074 126 C 51.599 126, 51.030 127.892, 50.809 130.204 M 54 130 C 54 130.550, 54.477 131, 55.059 131 C 55.641 131, 55.840 130.550, 55.500 130 C 55.160 129.450, 54.684 129, 54.441 129 C 54.198 129, 54 129.450, 54 130" stroke="none" fill="black" fill-rule="evenodd"/>
</svg>